# xmcd
#
# Track frame offsets:
#	150
#	14467
#	30235
#	40380
#	50814
#	66215
#	86716
#	106718
#	117824
#	132412
#	146998
#	160892
#	180418
#	197509
#	227825
#	256391
#	266275
#	282784
#	303089
#	317331
#
# Disc length: 4538 seconds
#
# Revision: 3
# Processed by: cddbd v1.5.2PL0 Copyright (c) Steve Scherf et al.
# Submitted via: audiograbber 1.83.01
#
DISCID=0d11b814
DTITLE=The Cats - 100 [CD 5)
DYEAR=2008
DGENRE=Pop
TTITLE0=Blow Wind Blow
TTITLE1=Town's Fair
TTITLE2=Bend It [mono]
TTITLE3=It's Over Now [demo - mono]
TTITLE4=I Still Remember
TTITLE5=I've Been In Love Before
TTITLE6=Crying Like I've Never Done Before
TTITLE7=What Have They Done To The Rain [mono]
TTITLE8=Jamaica
TTITLE9=I'm Going Home
TTITLE10=If I Could Be With You Now
TTITLE11=Annabell
TTITLE12=One More Time [mono]
TTITLE13=Dreams
TTITLE14=Lonely Walk
TTITLE15=With A Girl Like You [mono]
TTITLE16=Don't Waste Your Time [demo - mono]
TTITLE17=Marian [German Fun]
TTITLE18=Sois ma femme
TTITLE19=Classical Waves
EXTD=
EXTT0=
EXTT1=
EXTT2=
EXTT3=
EXTT4=
EXTT5=
EXTT6=
EXTT7=
EXTT8=
EXTT9=
EXTT10=
EXTT11=
EXTT12=
EXTT13=
EXTT14=
EXTT15=
EXTT16=
EXTT17=
EXTT18=
EXTT19=
PLAYORDER=
